PathFileType	4	(X/Y/Z)	c:/Users/goper/Files/vsCode/490R/osim_files/A04/A04_SSWS_06.trc
DataRate	CameraRate	NumFrames	NumMarkers	Units                	OrigDataRate	OrigDataStartFrame	OrigNumFrames
120.00	120.00	10	36	mm	120.0	679	905
                Frame#	Time	LPSIS			LASIS			LTH1			LTH2			LTH3			LTH4			LLFE			LMFE			LSH1			LSH2			LSH3			LSH4			LLMAL			LMMAL			LCAL			LMTP5			LTOE			LMTP1			RPSIS			RASIS			RTH1			RTH2			RTH3			RTH4			RLFE			RMFE			RSH1			RSH2			RSH3			RSH4			RLMAL			RMMAL			RCAL			RMTP1			RTOE			RMTP5		
		X1	Y1	Z1	X2	Y2	Z2	X3	Y3	Z3	X4	Y4	Z4	X5	Y5	Z5	X6	Y6	Z6	X7	Y7	Z7	X8	Y8	Z8	X9	Y9	Z9	X10	Y10	Z10	X11	Y11	Z11	X12	Y12	Z12	X13	Y13	Z13	X14	Y14	Z14	X15	Y15	Z15	X16	Y16	Z16	X17	Y17	Z17	X18	Y18	Z18	X19	Y19	Z19	X20	Y20	Z20	X21	Y21	Z21	X22	Y22	Z22	X23	Y23	Z23	X24	Y24	Z24	X25	Y25	Z25	X26	Y26	Z26	X27	Y27	Z27	X28	Y28	Z28	X29	Y29	Z29	X30	Y30	Z30	X31	Y31	Z31	X32	Y32	Z32	X33	Y33	Z33	X34	Y34	Z34	X35	Y35	Z35	X36	Y36	Z36

679	5.65000	-1609.55737	1038.04126	383.71246	-1831.72754	982.31396	457.69220	-1721.37903	628.51367	504.42096	-1722.64990	583.93738	504.21851	-1782.47522	625.81689	506.44208	-1776.60852	581.81262	505.98212	-1734.64697	470.84000	494.65402	-1758.47607	465.67007	356.14478	-1634.57349	433.62930	485.22623	-1604.37598	402.70987	478.59717	-1676.02478	387.69736	474.32220	-1639.72595	365.87247	468.52316	-1378.69604	244.59158	407.50729	-1403.76550	228.24237	323.25052	-1318.17920	277.97849	343.94293	-1400.78308	94.89641	439.63855	-1444.79260	63.75990	382.62097	-1429.47437	72.17319	336.37491	-1605.83276	1030.86572	276.24045	-1830.22913	1011.85712	172.66875	-1793.90942	703.43439	149.80266	-1810.66003	664.82159	151.26488	-1852.66187	722.00299	137.85295	-1862.60059	675.53827	143.93881	-1897.97473	547.53680	175.91545	-1905.10754	550.38171	291.23221	-1859.08850	329.58224	193.93022	-1867.78894	283.46942	204.68802	-1918.65576	331.67734	182.39233	-1917.06628	284.15314	191.11911	-1902.15137	91.72997	209.98825	-1942.74634	113.74969	340.68890	-1848.49268	50.58787	298.82553	-2074.26733	72.20463	308.56445	-2089.57275	92.85252	258.82446	-2052.26587	58.28481	191.65205
680	5.65833	-1618.31750	1040.26233	382.58090	-1840.30896	984.84662	457.03918	-1739.72632	629.06470	505.51648	-1741.83752	584.46704	505.19122	-1800.81982	627.56653	507.48367	-1795.79016	583.39349	506.90268	-1754.42004	469.36465	495.81860	-1777.90491	463.82877	357.34018	-1653.45166	434.01666	486.29510	-1623.99829	402.95990	479.81378	-1694.16357	387.34912	475.46255	-1657.48291	366.02875	469.77316	-1393.36621	250.03520	410.00406	-1419.82349	234.42366	327.17978	-1335.89307	285.53903	346.21338	-1412.35046	99.59276	441.28421	-1456.67590	68.00491	384.44928	-1442.08728	77.17057	337.91733	-1614.79333	1033.03735	275.20514	-1839.58496	1013.71027	171.85075	-1800.77234	704.85712	149.10649	-1816.97913	666.10809	150.66466	-1859.56201	722.99353	137.71634	-1869.19495	676.51105	143.80185	-1902.62439	548.00452	176.05548	-1908.45129	551.45209	290.74756	-1861.50684	330.14661	193.83696	-1869.71313	284.01312	204.68805	-1921.14417	331.75043	182.41687	-1919.15015	284.25027	191.07417	-1902.75696	91.97488	209.99063	-1943.37427	113.66615	340.65466	-1848.76831	51.03976	298.76096	-2074.76294	71.32514	308.70099	-2090.16113	91.81387	258.87793	-2052.64746	57.53653	191.78386
681	5.66667	-1626.91431	1042.47546	381.41705	-1848.60974	987.23352	456.60199	-1757.83215	630.53619	506.13382	-1760.74536	586.10583	506.00974	-1819.13538	630.18860	507.86514	-1814.75110	585.89227	507.52026	-1774.28967	469.49118	496.84677	-1798.21155	463.26514	358.87576	-1672.63599	435.45914	487.30658	-1642.71667	405.10092	480.96140	-1712.82275	388.44019	476.47717	-1675.85144	367.42453	470.87082	-1408.14563	256.52240	411.04208	-1434.58997	240.58563	328.17560	-1350.32849	291.22281	346.68948	-1428.54138	106.64215	443.31003	-1473.28296	75.26898	386.75674	-1458.58521	83.83915	340.19907	-1623.74182	1035.33423	274.09720	-1848.57068	1015.31952	171.17032	-1807.44250	706.20416	148.57196	-1823.25891	667.29675	150.17003	-1866.21179	723.90240	137.55255	-1875.48132	677.35376	143.68834	-1906.97791	548.28229	176.03658	-1913.15332	552.03375	290.86304	-1863.87744	330.63580	193.88216	-1871.89551	284.41901	204.67160	-1924.08716	331.55679	183.50090	-1921.12659	284.35492	191.20741	-1903.26550	92.26350	210.03564	-1944.06628	113.60680	340.62628	-1848.97888	51.58580	298.67249	-2075.16553	70.55051	308.87897	-2090.74121	90.94251	259.01385	-2053.04395	56.91998	191.94200
682	5.67500	-1635.48108	1044.73694	380.15219	-1857.34814	990.32428	456.25018	-1775.76099	632.92358	506.44714	-1779.07849	588.42120	506.59671	-1836.89343	633.26001	507.89688	-1833.09595	588.89801	507.91827	-1794.19263	472.21396	497.60425	-1817.90637	465.64691	359.58920	-1692.15723	438.90546	488.21069	-1662.10791	408.85846	481.92957	-1731.94995	391.81796	477.58633	-1695.10620	370.81921	471.90091	-1426.14893	262.40198	412.00369	-1451.56689	245.46935	328.50082	-1367.62439	296.38406	347.63593	-1446.94214	113.02103	445.64966	-1490.98621	80.97865	388.97079	-1475.97656	88.94489	342.51776	-1632.49475	1037.58997	272.95667	-1857.68042	1016.79517	170.70810	-1813.37061	707.55182	148.12233	-1828.94824	668.49377	149.80867	-1872.55127	724.66669	137.40239	-1881.33984	678.04010	143.48067	-1911.12012	548.42773	176.02177	-1918.24768	552.26501	290.49234	-1866.18896	331.13446	193.96083	-1873.64636	284.89951	204.73476	-1926.35095	331.67548	183.60321	-1923.10254	284.46948	191.29076	-1903.85120	92.45604	210.11475	-1944.59241	113.54950	340.63223	-1849.22278	52.31700	298.30338	-2075.50854	69.84785	308.99530	-2091.20972	90.18157	259.04630	-2053.40991	56.31475	192.07941
683	5.68333	-1644.02197	1046.52783	378.96252	-1865.36243	992.76398	456.26370	-1792.90295	635.90765	506.63773	-1796.87891	591.48914	506.97717	-1854.09375	636.99573	508.03873	-1850.85010	592.62903	508.30237	-1813.92480	477.12622	498.12192	-1837.51746	469.91302	360.09552	-1711.90552	443.83707	488.99084	-1681.92004	413.74237	482.90353	-1751.71362	396.57626	478.36426	-1714.79199	375.68500	472.94778	-1446.88049	267.32040	413.13455	-1471.54736	249.33794	329.93546	-1388.02148	301.41153	349.12381	-1466.24365	117.89163	447.90042	-1509.60437	84.86382	391.20422	-1494.15820	92.72758	344.82617	-1641.32678	1039.67334	271.82581	-1866.63513	1018.11438	170.30063	-1819.50671	708.71368	147.87279	-1834.58472	669.53015	149.55441	-1878.63525	725.31354	137.21759	-1887.01770	678.59076	143.37531	-1914.99597	548.43097	176.00885	-1923.68274	552.41412	290.06854	-1868.21240	331.68674	194.04065	-1875.46436	285.34836	204.82349	-1928.36682	331.68915	183.75702	-1924.97083	284.56873	191.47499	-1904.45679	92.73835	210.12971	-1945.04492	113.43428	340.69919	-1849.48792	52.61246	298.71344	-2075.79370	69.05947	309.16229	-2091.70801	89.37577	259.12268	-2053.77173	55.80733	192.17068
684	5.69167	-1652.58582	1048.33093	377.78690	-1874.45239	995.34888	456.01575	-1809.64514	639.60419	506.83066	-1814.12170	595.22968	507.15332	-1870.74683	641.59418	508.43448	-1868.10645	597.18054	508.66650	-1833.72473	482.77499	498.59326	-1857.22461	474.84732	360.56171	-1731.74365	449.29953	489.70697	-1701.77271	419.07385	483.81091	-1771.59998	402.12354	479.39755	-1734.80896	381.06769	474.02368	-1467.59790	271.28967	415.18399	-1491.83911	253.06168	331.80524	-1408.75916	305.29099	351.47168	-1486.55652	121.97965	450.22391	-1529.68298	88.57553	393.59341	-1514.11462	96.43890	347.26047	-1650.19177	1041.54712	270.73370	-1875.52991	1019.20667	170.16747	-1824.30591	710.20093	147.32114	-1839.77527	670.46594	149.36887	-1884.53357	725.83240	137.05087	-1892.45178	679.01166	143.20976	-1918.68115	548.43701	175.97325	-1928.63464	552.19061	289.65714	-1870.35254	332.13608	194.24330	-1877.37927	285.66455	204.97395	-1930.50354	331.78986	183.91310	-1926.74585	284.70325	191.60472	-1904.91711	93.01627	210.20555	-1945.61792	113.26804	340.75851	-1849.75757	52.91182	298.81992	-2076.16260	68.32991	309.36282	-2092.24878	88.54686	259.37881	-2054.00220	55.35135	192.22391
685	5.70000	-1661.09192	1050.14990	376.66650	-1883.05103	997.84161	456.08578	-1825.93176	644.09229	506.78595	-1831.13293	599.81549	507.37112	-1886.89050	647.06946	508.69122	-1884.98535	602.59894	509.07681	-1853.47595	488.08878	498.94296	-1876.74658	479.75949	360.91376	-1751.49402	454.29565	490.32639	-1721.74414	423.85693	484.72522	-1791.75232	406.83969	480.15729	-1754.90112	385.90372	474.92465	-1487.88342	274.97626	417.62131	-1512.65747	256.99243	334.60275	-1429.00061	308.43460	353.73453	-1508.03345	125.96261	453.01880	-1551.51709	92.86078	396.53119	-1536.14758	100.43307	350.04431	-1658.87329	1043.44910	269.65125	-1884.09021	1020.14087	170.13644	-1830.02002	711.28998	147.34488	-1844.92957	671.34601	149.23378	-1890.11218	726.24847	136.93832	-1897.60876	679.33862	143.16040	-1922.79480	548.36993	176.19745	-1933.19128	551.99371	289.40689	-1872.52148	332.68509	194.39178	-1879.12634	286.12766	205.14026	-1932.62659	331.94775	184.12607	-1928.54004	284.82956	191.81421	-1905.42065	93.30137	210.29591	-1946.46924	113.40032	340.63452	-1849.98279	53.26069	298.84943	-2076.48975	67.63869	309.58234	-2092.67554	87.83068	259.55292	-2054.22974	55.00198	192.30957
686	5.70833	-1669.55273	1052.01404	375.63058	-1891.32764	1000.38599	456.14441	-1842.04187	648.83746	506.36307	-1848.23853	604.65015	507.75641	-1903.02222	652.91803	508.40704	-1901.93396	608.47784	509.60056	-1873.23914	493.22247	499.27481	-1896.15198	484.74796	361.13293	-1771.53198	458.77359	491.01709	-1741.92407	428.10376	485.55942	-1812.04456	411.59903	480.89584	-1775.15979	390.43188	475.70084	-1508.33435	277.93399	419.40222	-1533.28918	259.85132	336.52551	-1448.90662	310.33694	355.36011	-1530.29041	129.47491	455.64392	-1574.23535	96.60702	399.37759	-1558.71521	103.69447	352.90747	-1667.51733	1045.31592	268.53741	-1892.80249	1021.14020	170.20496	-1835.55042	712.31226	147.30789	-1849.85376	672.15491	149.14099	-1895.72485	726.61475	136.85773	-1902.70398	679.71350	143.07616	-1925.67285	548.53253	175.94966	-1937.24622	551.78229	289.45425	-1874.39905	333.21393	194.61534	-1880.80469	286.71439	205.31332	-1934.57776	332.14575	184.48323	-1930.28064	285.04773	192.15398	-1905.89758	93.61105	210.44734	-1946.92981	113.49744	341.31052	-1850.31128	53.65604	298.98523	-2076.83350	67.10113	309.76428	-2092.93140	87.31944	259.63269	-2054.26245	54.89901	192.30180
687	5.71667	-1678.19971	1053.68396	374.77481	-1899.63086	1003.45581	456.30838	-1858.65088	653.47156	505.85617	-1865.29736	609.50696	508.07382	-1919.12927	658.52020	507.71133	-1918.69690	614.10571	510.58969	-1893.02820	498.14139	499.55972	-1915.51306	489.63290	361.32562	-1791.54980	462.88043	491.81259	-1762.22095	431.91467	486.45322	-1831.97620	416.27808	482.13525	-1794.91272	394.10104	477.68192	-1529.22144	279.88147	420.96552	-1553.93042	261.44910	338.10559	-1469.10950	311.18649	357.01160	-1552.97339	131.91011	458.20502	-1597.17712	99.30781	401.95181	-1581.24670	105.81829	355.50497	-1676.10876	1047.22717	267.53952	-1901.23877	1022.07739	170.34541	-1840.91699	713.29858	147.41843	-1855.02686	672.98511	149.22145	-1901.84961	727.05890	137.23534	-1907.65515	680.08545	143.10597	-1929.20642	548.55157	176.06679	-1940.89124	551.62604	289.65549	-1876.36133	333.73212	195.06691	-1882.35278	287.21387	205.53824	-1936.53577	332.42624	184.83063	-1931.92114	285.30368	192.40147	-1905.95959	94.32119	210.29807	-1947.38281	113.51706	341.43439	-1850.67041	53.71376	299.36716	-2077.11353	66.56853	309.96506	-2093.35791	86.82218	259.87827	-2054.52271	54.73526	192.48257
688	5.72500	-1686.33594	1056.71362	373.37305	-1907.96777	1006.47168	456.31665	-1875.21777	657.93036	505.43845	-1882.48315	614.06885	508.05945	-1935.94470	664.07666	507.54260	-1936.33862	619.67853	510.03183	-1912.53979	502.89346	499.82166	-1934.66443	494.20496	361.60181	-1811.94312	466.90866	492.79138	-1782.31860	435.31616	487.29498	-1852.24390	420.37982	482.78949	-1815.45288	397.90195	478.56680	-1550.74207	280.96405	422.62344	-1575.18201	262.19775	339.64322	-1490.13733	311.29718	358.88593	-1576.09778	133.26695	460.55356	-1620.07666	100.59937	404.27481	-1603.95996	106.83109	357.83716	-1684.59924	1049.14307	266.56561	-1909.74268	1023.05475	170.37413	-1846.14868	714.25250	147.43608	-1859.77148	673.76947	149.26138	-1906.37195	727.42664	136.80235	-1912.69312	680.27972	143.19191	-1932.69897	548.74969	176.22090	-1944.69922	551.86670	289.88519	-1878.24048	334.35016	195.34157	-1883.94067	287.84750	205.90013	-1938.41956	332.63663	185.20561	-1933.40784	285.58780	192.68813	-1906.82751	94.44278	210.73624	-1947.83325	113.53072	341.52142	-1850.84460	54.17094	299.31577	-2077.29614	66.04926	310.14542	-2093.84546	86.25974	260.16885	-2054.92993	54.43049	192.74728
